<?xml version="1.0" encoding="utf-8"?>
<!-- Generator: Adobe Illustrator 19.1.0, SVG Export Plug-In . SVG Version: 6.00 Build 0)  -->
<!DOCTYPE svg PUBLIC "-//W3C//DTD SVG 1.1//EN" "http://www.w3.org/Graphics/SVG/1.1/DTD/svg11.dtd">
<svg version="1.1" id="Layer_1" xmlns="http://www.w3.org/2000/svg" xmlns:xlink="http://www.w3.org/1999/xlink" x="0px" y="0px"
	 width="150px" height="150px" viewBox="0 0 150 150" style="enable-background:new 0 0 150 150;" xml:space="preserve">
<style type="text/css">
	.st0{fill:#1D1D1B;}
</style>
<g>
	<g>
		<path class="st0" d="M40,36.7c2.4,0,3.3-0.1,4.1-0.6c0.9-0.5,1.3-1.3,1.3-2.3c0-0.9-0.3-1.4-1.2-2.6c-0.6-0.8-0.9-1.4-0.9-1.9
			c0-0.7,0.4-1.3,1.4-1.8l1.9-1c2.6-1.3,4.1-3.5,4.1-5.8c0-3.3-2.8-5.5-7-5.5c-6.6,0-12.7,4.9-12.7,10.2c0,1.5,0.6,2.6,2,3.6
			c0.9,0.6,1.1,0.9,1.1,1.6c0,1-0.9,1.8-1.9,1.8c-2.6,0-5-3.3-5-6.9c0-7.2,7.9-13.7,16.7-13.7c6.5,0,10.7,3.5,10.7,9
			c0,2.7-1.2,5-3.5,7.1c-1.1,1-2.2,1.6-3.4,2c1.2,1.6,1.6,2.7,1.6,4.2c0,2.4-1.4,4.6-3.7,5.6c-1.3,0.6-2.5,0.7-5.5,0.7h-4.3
			c-1.1,0-1.5,0-1.9-0.3c-0.6-0.3-1-1-1-1.7c0-0.6,0.2-1.1,0.8-2.6l7.9-16.9c0.9-1.8,1.4-2.3,2.4-2.3s1.7,0.7,1.7,1.6
			c0,0.4-0.1,0.8-0.6,1.9l-7.7,16.6H40z"/>
		<path class="st0" d="M54.4,30.5c0-1.9,1.1-3.4,3.7-4.7c1.6-0.8,3.2-1.3,3.9-1.3c0.9,0,1.6,0.6,1.6,1.5c0,0.4-0.2,0.9-0.6,1.2
			c-0.3,0.2-0.5,0.3-2,1l-1.5,0.6c-1.3,0.5-1.7,1-1.7,1.7c0,0.3,0,0.5,0.2,0.8c1.5-0.7,2.3-1,2.8-1c0.8,0,1.5,0.7,1.5,1.5
			c0,0.8-0.4,1.2-1.4,1.6c-0.2,0.1-0.6,0.3-1.3,0.6l-1.9,0.9c-1.6,0.7-2.2,1.2-2.2,1.9c0,0.5,0.4,0.8,1.1,0.8c1.8,0,5-1.2,7.9-2.9
			c1.2-0.7,1.6-0.9,2-0.9c0.8,0,1.4,0.6,1.4,1.4c0,1.1-1,1.9-3.9,3.3c-3.1,1.5-5.5,2.2-7.8,2.2c-2.8,0-4.4-1.3-4.4-3.6
			c0-1.8,1-3.2,3.3-4.4C54.5,31.9,54.4,31.3,54.4,30.5z"/>
		<path class="st0" d="M75.7,24.8c1.8,0,3,1.1,3,2.8c0,1-0.4,2.4-1.2,3.9l-1,1.9l-0.9,1.7c-0.3,0.7-0.5,1.1-0.5,1.4
			c0,0.4,0.3,0.7,0.6,0.7c0.6,0,1.2-0.4,3.3-2c1.5-1.2,1.9-1.4,2.5-1.4c0.7,0,1.3,0.6,1.3,1.4c0,0.8-0.6,1.5-2,2.6
			c-2.5,1.9-4.6,2.9-6.3,2.9c-2,0-3.3-1.3-3.3-3.2c0-0.5,0.2-1.3,0.4-2c0.3-0.9,0.4-1,2-4.2c0.8-1.6,1-2,1-2.3
			c0-0.3-0.3-0.6-0.6-0.6c-0.8,0-2.6,1-4,2.3l-3.6,7.9c-0.8,1.7-1.3,2.2-2.2,2.2c-1,0-1.6-0.6-1.6-1.6c0-0.3,0.1-0.8,0.6-1.7
			l4.9-10.5c0.8-1.7,1.3-2.2,2.2-2.2c0.9,0,1.6,0.6,1.6,1.5c0,0,0,0.1,0,0.1C72.7,25.5,74.5,24.8,75.7,24.8z"/>
		<path class="st0" d="M91,24.8c1.8,0,3,1.1,3,2.8c0,1-0.4,2.4-1.2,3.9l-1,1.9L91,35.1c-0.3,0.7-0.5,1.1-0.5,1.4
			c0,0.4,0.3,0.7,0.6,0.7c0.6,0,1.2-0.4,3.3-2c1.5-1.2,1.9-1.4,2.5-1.4c0.7,0,1.3,0.6,1.3,1.4c0,0.8-0.6,1.5-2,2.6
			c-2.5,1.9-4.6,2.9-6.3,2.9c-2,0-3.3-1.3-3.3-3.2c0-0.5,0.2-1.3,0.4-2c0.3-0.9,0.4-1,2-4.2c0.8-1.6,1-2,1-2.3
			c0-0.3-0.3-0.6-0.6-0.6c-0.8,0-2.6,1-4,2.3l-3.6,7.9c-0.8,1.7-1.3,2.2-2.2,2.2s-1.6-0.6-1.6-1.6c0-0.3,0.1-0.8,0.6-1.7l4.9-10.5
			c0.8-1.7,1.3-2.2,2.2-2.2c0.9,0,1.6,0.6,1.6,1.5c0,0,0,0.1,0,0.1C88,25.5,89.8,24.8,91,24.8z"/>
		<path class="st0" d="M106.5,26.9c0.8-1.7,1.3-2.2,2.2-2.2c0.9,0,1.6,0.6,1.6,1.5c0,0.4-0.1,0.7-0.6,1.7l-3.4,7.3l-0.7,1.5
			c-0.3,0.6-0.3,0.9-0.3,1.2c0,0.3,0.1,0.4,0.5,1.1c0.6,0.9,1,1.7,1,2.6c0,1.8-1,3.5-2.8,4.3c-1.2,0.6-2.5,0.8-5.5,0.8H92
			c-1.2,0-1.4,0-1.9-0.3c-0.4-0.3-0.7-0.7-0.7-1.2c0-0.6,0.4-1.3,1-1.5c0.4-0.2,0.8-0.3,1.9-0.3h6.2c3.2,0,4.5-0.5,4.5-1.7
			c0-0.5-0.2-0.9-0.6-1.1c-0.4-0.2-0.7-0.3-2.1-0.3c-2.3,0-2.9-0.1-3.8-0.6c-1.2-0.6-1.9-1.8-1.9-3.2c0-1,0.4-2.5,1.3-4.3l2.5-5.4
			l0.1-0.2l0.2-0.5c0.5-1.1,1-1.5,1.9-1.5c0.9,0,1.6,0.6,1.6,1.5c0,0.4-0.1,0.7-0.6,1.7l-2.7,5.8c-0.4,1-0.7,1.8-0.7,2.2
			c0,0.7,0.5,1.1,1.4,1.1c0.6,0,1.1-0.1,2.1-0.5L106.5,26.9z"/>
		<path class="st0" d="M115.1,13.7c0.7-1.6,1.1-1.9,2-1.9c0.8,0,1.5,0.6,1.5,1.3c0,0.4-0.1,0.6-0.5,1.6l-0.6,1.2
			c-0.7,1.6-1.1,1.9-1.9,1.9c-0.9,0-1.4-0.6-1.4-1.4c0-0.3,0.1-0.7,0.5-1.5L115.1,13.7z"/>
		<path class="st0" d="M119.4,30.4c-0.8,1.7-1.3,2.2-2.2,2.2c-0.9,0-1.6-0.6-1.6-1.6c0-0.4,0.1-0.8,0.6-1.7l2.5-5.4
			c0.9-1.9,1.2-2.2,2.1-2.2c1,0,1.6,0.6,1.6,1.5c0,0.2,0,0.4,0,0.5l-0.3,0.9c-0.1,0.2-0.1,0.5-0.1,0.7c0,0.8,0.1,1.3,1,3.2
			c0.4,0.8,0.9,2.1,1.2,2.9c0.5,1.3,0.6,2,0.6,3c0,3.5-2.7,6.2-6.1,6.2c-3.1,0-5.9-2.3-5.9-4.9c0-1.2,0.8-2,1.9-2
			c0.6,0,1.2,0.4,1.5,1.1l0.3,0.9c0.4,1.2,1.1,1.7,2.1,1.7c1.6,0,2.7-1.2,2.7-2.8c0-0.9-0.1-1.4-1.1-3.9c-0.2-0.6-0.3-0.8-0.3-1.2
			L119.4,30.4z"/>
	</g>
	<g>
		<g>
			<path class="st0" d="M8,95.3c0-15.2,0-30.5,0-45.7c3.6,0.3,5.4,0.4,9,0.7c1.7,0.1,3.2,0.4,4.4,0.7c1.3,0.4,2.4,0.9,3.4,1.7
				c1,0.8,1.7,1.9,2.2,3.4c0.5,1.5,0.7,3.5,0.7,5.7c0,5.9-5.4,9.5-5.4,9.5c0,0,3.8,0.8,4.9,2.1c1.1,1.3,1.6,3.4,1.7,6.4
				c0,3.9-0.8,6.9-2.6,9.1c-1.7,2.1-4.3,3.4-7.7,4.1C14.4,93.9,12.3,94.4,8,95.3z M14.7,69.9c0.8-0.1,1.2-0.1,2.1-0.2
				c2-0.2,3.3-0.7,4-1.9c0.7-1.1,1.1-3,1.1-5.7c0-1.4-0.1-2.6-0.4-3.4c-0.2-0.9-0.7-1.5-1.2-2c-0.6-0.4-1.2-0.7-1.9-0.9
				c-0.7-0.2-1.6-0.3-2.8-0.3c-0.4,0-0.6,0-0.9,0C14.7,60.9,14.7,64.8,14.7,69.9z M14.7,89c1-0.2,1.5-0.3,2.5-0.5
				c2-0.4,3.4-1.1,4.1-2.3c0.8-1.2,1.1-3.1,1.1-5.5c0-2.6-0.5-4.2-1.3-5.2c-0.9-0.9-2.3-1.2-4.4-1c-0.8,0.1-1.3,0.1-2.1,0.2
				C14.7,79.5,14.7,83.4,14.7,89z"/>
			<path class="st0" d="M31.3,90.6c2.5-12.9,4.7-25.8,7.3-38.7c2.8,0.2,4.2,0.3,7,0.4c2.4,11.7,4.9,23.4,7.5,35.1
				c-2.5,0.3-3.7,0.4-6.2,0.7c-0.6-2.8-0.9-4.5-1.5-7.9c-2.5,0.3-3.8,0.4-6.3,0.7c-0.6,3.7-0.9,5.6-1.4,8.6
				C35.1,90,33.8,90.2,31.3,90.6z M39.7,76.4c2-0.2,2.9-0.3,4.9-0.4c-1-5.9-1.5-8-2.5-14.8C41.2,68,40.7,70.2,39.7,76.4z"/>
			<path class="st0" d="M56.7,87.1c0-11.4-0.1-22.8-0.1-34.2c2.7,0.1,4,0.2,6.7,0.2c0,5.3,0,9.1,0,14.7c2.9-5.8,4.3-9.1,7.2-14.6
				c2.5,0,3.8,0,6.4,0c-2.8,5.9-4.2,8.9-7,14.8c3.1,7.1,4.6,10.8,7.7,18.1c-2.7,0-4,0-6.7,0.1c-2.5-6-3.8-9.4-6.3-15.4
				c-0.5,0.9-0.8,1.3-1.3,2.2c0,5.4,0,8.5,0,13.6C60.7,86.8,59.4,86.9,56.7,87.1z"/>
			<path class="st0" d="M80.7,86.2c0-11,0-22,0-32.9c6.1-0.1,9.2-0.2,15.3-0.4c0,1.5,0,2.4,0,4.2c-3.4,0.1-5.2,0.1-8.6,0.2
				c0,3.9,0,6.1,0,9.9c2.7,0.1,4.1,0.1,6.8,0.3c0,1.7,0,2.4,0,4.1c-2.7-0.1-4.1-0.2-6.8-0.2c0,4.3,0,6.7,0,11.1
				c3.5,0.2,5.3,0.3,8.8,0.7c0,1.7,0,2.6,0,4.1C90,86.6,86.9,86.4,80.7,86.2z"/>
			<path class="st0" d="M100.1,87.6C100,76,99.9,64.4,99.9,52.7c3.3-0.2,5-0.2,8.4-0.4c1.9-0.1,3.6-0.1,5,0.1
				c1.4,0.2,2.6,0.6,3.6,1.2c1,0.7,1.8,1.7,2.3,3.1c0.5,1.5,0.8,3.4,0.8,5.7c0,2.9-0.3,5.1-1,6.6c-0.7,1.5-1.8,2.3-3.4,2.7
				c2.1,6.4,3.2,12.4,5.4,19c-2.7-0.5-4-0.7-6.7-1.1c-1.9-6-2.8-10.9-4.6-17.1c-1.2-0.1-1.8-0.1-3-0.2c0.1,6,0.1,10.6,0.2,16.2
				C104.1,88.1,102.8,87.9,100.1,87.6z M106.6,68.5c0.6,0,1,0.1,1.6,0.1c2,0.1,3.4-0.2,4.2-1c0.8-0.8,1.2-2.4,1.2-4.8
				c0-2.3-0.4-4-1.1-4.9c-0.7-0.9-2.1-1.3-4-1.3c-0.8,0-1.2,0-2,0.1C106.6,61.3,106.6,64.3,106.6,68.5z"/>
			<path class="st0" d="M130.3,92.5V77.2l-7.8-25.8l6.3-0.5l4.6,18.3l4.3-19l6.3-0.5l-7.4,28.2v15.9L130.3,92.5z"/>
		</g>
	</g>
	<path class="st0" d="M56.2,97.2c0,0-30.5,4-30.5,21c0,12.4,14.2,19,47.2,19c37.3,0,53.4-5.3,53.4-17.4c0-13.2-25.1-19.6-25.1-19.6
		s-6.7,0.6-16.9,14.2c0,0,1.2-10,12.6-17.8c0,0-6.8-2-11.1-1.6c0,0-11,6.6-19.5,21.2c0,0,1.3-11.3,12.1-21.7c0,0-6.2-1.2-12.1,0.5
		c-0.4,0.1-9.7,5.2-18.2,19.6C48.1,114.5,49.4,106.6,56.2,97.2z"/>
</g>
</svg>
